<?xml version="1.0" standalone="no"?>
<!DOCTYPE svg PUBLIC "-//W3C//DTD SVG 20010904//EN"
 "http://www.w3.org/TR/2001/REC-SVG-20010904/DTD/svg10.dtd">
<svg version="1.0" xmlns="http://www.w3.org/2000/svg"
 width="512.000000pt" height="512.000000pt" viewBox="0 0 512.000000 512.000000"
 preserveAspectRatio="xMidYMid meet">
<metadata>
Created by potrace 1.16, written by Peter Selinger 2001-2019
</metadata>
<g transform="translate(0.000000,512.000000) scale(0.100000,-0.100000)"
fill="#000000" stroke="none">
<path d="M2100 4701 c-29 -31 -39 -36 -46 -24 -5 8 -28 17 -51 20 -37 5 -46 2
-73 -25 -24 -25 -30 -39 -30 -74 l0 -43 -46 3 c-37 3 -50 0 -70 -19 -28 -26
-33 -82 -9 -115 13 -20 11 -23 -36 -54 -85 -55 -157 -161 -195 -285 -30 -98
-24 -289 14 -436 16 -64 37 -133 47 -152 24 -51 87 -105 139 -119 l44 -12 -31
-47 c-56 -82 -114 -137 -155 -149 -22 -5 -86 -38 -144 -73 -344 -206 -620
-525 -773 -891 -39 -93 -30 -115 -80 204 -53 334 -69 387 -141 450 -62 54
-119 75 -199 73 -84 -1 -145 -26 -203 -82 -73 -71 -75 -111 -28 -491 82 -661
130 -969 160 -1035 38 -84 107 -135 183 -135 19 0 21 -11 32 -212 16 -281 27
-372 46 -402 33 -50 44 -51 499 -38 232 7 523 15 649 19 l227 6 0 -75 c0 -58
4 -79 17 -89 34 -29 434 -19 483 11 15 10 15 52 -5 425 -8 149 -15 283 -15
299 l0 29 1038 -8 c570 -4 1039 -9 1041 -11 2 -2 -4 -159 -14 -350 -15 -294
-16 -348 -4 -359 11 -11 63 -14 241 -16 125 0 231 2 237 6 8 4 11 121 11 366
l0 359 120 0 c108 0 120 2 130 19 6 12 10 117 10 273 0 233 -2 255 -20 285
-10 18 -32 39 -49 47 -28 15 -29 18 -25 68 2 29 14 250 25 492 15 313 18 441
10 449 -6 6 -71 13 -156 15 l-144 4 -3 87 -3 86 -235 0 -235 0 0 -210 c0 -115
4 -380 9 -587 l8 -378 -36 0 c-36 0 -36 0 -36 44 0 64 -7 76 -44 76 -29 0
-114 -12 -173 -25 l-22 -5 21 47 c16 37 19 60 16 112 -11 147 -114 258 -268
286 -30 6 -54 29 -175 173 -77 91 -155 177 -174 189 -103 70 -218 -18 -182
-138 16 -52 118 -187 196 -256 l64 -57 -36 -24 c-19 -13 -51 -29 -70 -34 -31
-8 -43 -6 -97 23 -75 40 -128 42 -331 15 -227 -30 -468 -4 -680 76 l-90 33
-23 65 c-12 36 -41 111 -63 167 -26 66 -38 110 -34 123 9 29 103 123 159 158
l47 30 86 -54 c47 -30 102 -58 122 -64 112 -31 203 5 296 118 33 41 69 79 79
84 13 8 39 7 86 -2 77 -15 111 -9 140 22 29 32 26 90 -11 178 -36 85 -35 99
20 227 41 98 54 177 49 309 l-3 111 42 46 c70 75 96 165 82 281 -24 200 -195
362 -454 431 -55 15 -132 38 -172 51 -81 27 -153 30 -255 10 l-66 -13 -7 33
c-3 20 -20 45 -41 63 -28 25 -44 31 -81 31 -41 0 -51 -5 -83 -39z m126 -76 c7
-19 14 -48 14 -65 0 -41 20 -47 97 -26 127 34 178 32 309 -7 66 -19 151 -44
189 -56 137 -40 258 -135 315 -247 21 -42 25 -63 25 -140 0 -83 -2 -94 -30
-138 -16 -27 -50 -63 -73 -80 l-44 -31 -186 -6 c-202 -6 -234 -13 -286 -66
-43 -42 -63 -91 -86 -203 -20 -98 -48 -171 -70 -185 -6 -4 -24 -11 -41 -15
-26 -8 -35 -5 -55 15 -33 33 -31 68 11 175 72 184 29 298 -115 308 -63 5 -107
-10 -158 -53 -70 -59 -113 -178 -91 -257 12 -45 4 -55 -60 -83 -79 -35 -165
-11 -205 58 -29 50 -72 223 -82 332 -19 213 75 400 242 481 61 29 74 40 74 59
0 17 -11 30 -40 46 -64 36 -47 53 23 24 48 -20 70 -19 98 4 l24 20 -22 40
c-24 41 -29 76 -14 85 5 3 25 -19 45 -50 32 -47 41 -55 64 -52 24 3 28 9 38
61 7 31 17 64 24 72 22 26 50 18 66 -20z m5 -850 c58 -31 60 -81 7 -213 -62
-156 -26 -268 91 -280 39 -3 58 1 90 19 68 38 94 90 127 249 22 108 48 156 99
183 36 19 57 22 210 22 94 0 177 4 186 8 13 7 17 0 23 -39 14 -108 -3 -209
-60 -342 -48 -110 -49 -151 -5 -256 41 -98 37 -104 -58 -86 -65 12 -71 12
-115 -10 -32 -15 -65 -44 -103 -92 -69 -87 -102 -108 -169 -108 -60 0 -108 23
-234 113 -196 140 -304 249 -367 370 -18 34 -33 65 -33 68 0 3 20 20 46 37 42
30 47 31 67 17 46 -32 147 -9 147 34 0 29 -25 44 -49 32 -32 -18 -58 -13 -80
15 -45 57 -36 145 22 211 52 59 105 75 158 48z m-361 -458 c0 -18 72 -129 122
-189 22 -27 80 -81 128 -122 l89 -74 -42 -28 c-23 -15 -68 -53 -99 -85 l-57
-58 -54 103 c-80 150 -133 231 -179 270 l-40 35 45 58 c24 32 50 68 56 81 13
24 31 30 31 9z m-122 -255 c44 -45 156 -241 224 -393 50 -113 108 -263 108
-280 0 -27 -221 126 -331 229 -61 57 -83 72 -99 67 -42 -13 -24 -49 68 -136
190 -181 468 -324 737 -379 129 -26 307 -43 374 -35 l58 7 19 -74 c20 -77 28
-338 11 -355 -15 -14 -335 -6 -457 11 -130 19 -450 99 -585 146 -195 69 -358
176 -424 279 -33 51 -56 62 -79 39 -20 -20 -14 -40 26 -93 l39 -51 -49 -84
c-91 -160 -136 -295 -159 -480 -13 -109 -9 -173 27 -430 28 -200 29 -340 3
-396 l-14 -29 -243 -3 c-276 -3 -302 3 -328 65 -19 44 -38 333 -30 455 l6 97
42 40 c42 38 43 41 46 113 2 46 -8 152 -27 288 -17 118 -31 230 -31 249 0 92
144 413 257 574 173 244 397 446 629 566 85 44 133 42 182 -7z m2932 -237 l0
-75 -92 0 c-51 0 -123 -3 -160 -7 l-68 -6 0 82 0 81 160 0 160 0 0 -75z
m-4320 10 c59 -31 102 -91 119 -166 27 -118 191 -1221 191 -1280 0 -40 -51
-79 -129 -100 -152 -39 -234 -19 -272 66 -22 50 -72 360 -119 735 -17 135 -39
316 -50 402 -26 208 -26 250 3 282 12 14 49 39 82 56 51 27 66 31 105 25 25
-4 56 -13 70 -20z m4630 -188 c0 -43 -5 -78 -12 -85 -8 -8 -49 -12 -120 -12
l-108 0 0 78 c0 43 3 82 7 85 3 4 57 7 120 7 l113 0 0 -73z m-310 19 l0 -34
-102 -6 c-57 -4 -129 -9 -160 -12 l-58 -6 0 40 0 41 53 4 c28 2 100 4 160 5
l107 2 0 -34z m-7 -198 c-2 -62 -6 -209 -9 -325 l-6 -213 -138 0 -137 0 -6
197 c-4 108 -7 249 -7 314 l0 117 63 6 c77 8 139 12 197 14 l45 2 -2 -112z
m303 -80 c-3 -68 -9 -175 -13 -240 l-6 -116 -30 -6 c-16 -3 -65 -6 -108 -6
l-79 0 0 78 c0 44 3 154 7 245 l6 167 115 0 115 0 -7 -122z m-1149 -156 c113
-58 158 -203 94 -303 -15 -24 -44 -58 -62 -75 -71 -65 -67 -64 -269 -64 l-185
0 -2 97 c-2 53 -9 123 -18 155 -8 33 -15 61 -15 63 0 1 15 6 34 9 19 4 75 33
123 65 49 32 102 63 118 69 42 16 134 8 182 -16z m-576 -97 c53 -50 71 -105
77 -231 5 -109 4 -113 -20 -137 -16 -16 -41 -26 -74 -31 -27 -4 -65 -9 -84
-12 l-35 -5 -1 128 c-2 101 -7 147 -26 220 -29 107 -31 103 69 99 54 -2 67 -6
94 -31z m-1618 -239 c71 -39 132 -65 267 -112 l95 -33 -257 0 c-163 -1 -259
-5 -263 -11 -8 -13 -33 -498 -27 -522 6 -23 18 -26 150 -39 64 -5 140 -12 168
-15 l51 -5 6 -136 c4 -75 7 -191 7 -258 l0 -122 -122 -6 c-66 -4 -186 -7 -266
-7 -134 0 -144 1 -136 18 4 9 9 72 12 139 3 98 -1 159 -23 305 -52 350 -18
585 120 828 55 97 50 95 107 50 27 -22 78 -56 111 -74z m3323 68 c-3 -9 -6
-49 -6 -90 l0 -74 -111 0 -112 0 7 53 c3 28 6 69 6 90 l0 37 111 0 c97 0 110
-2 105 -16z m-296 -124 l0 -40 -140 0 -140 0 0 40 0 40 140 0 140 0 0 -40z
m345 -134 c61 -26 64 -51 43 -329 l-12 -159 -495 7 c-273 4 -1049 11 -1726 15
-676 5 -1245 12 -1264 16 l-33 7 6 101 c3 55 9 149 12 208 l6 108 302 1 c409
1 401 1 576 -24 127 -18 201 -21 410 -21 254 0 255 0 390 33 74 18 164 36 200
41 36 4 399 8 808 9 620 1 748 -1 777 -13z m-4435 -643 c0 -201 16 -367 41
-414 10 -21 19 -41 19 -45 0 -11 -89 2 -104 15 -18 15 -23 62 -36 326 -6 115
-13 219 -16 231 -5 19 -1 23 23 27 80 12 73 24 73 -140z m1664 85 c6 -31 20
-423 21 -573 l0 -120 -177 -3 -178 -2 0 356 0 356 113 -6 c61 -4 128 -2 147 3
57 15 69 13 74 -11z m2554 -328 l-3 -325 -170 4 c-93 2 -172 5 -174 7 -5 5 14
413 26 564 l6 78 159 -1 158 -2 -2 -325z"/>
</g>
</svg>
